# xmcd
#
# Track frame offsets:
#	150
#	26202
#	48307
#	66355
#	85525
#	105245
#	124472
#	167820
#	192797
#	206702
#	231572
#
# Disc length: 3325 seconds
#
# Revision: 17
# Processed by: cddbd v1.5.2PL0 Copyright (c) Steve Scherf et al.
# Submitted via: audiograbber 1.83.01
#
DISCID=990cfb0b
DTITLE=Janis Joplin - Cheap Thrills
DYEAR=1968
DGENRE=Blues Rock
TTITLE0=Combination of the Two
TTITLE1=I Need a Man to Love
TTITLE2=Summertime
TTITLE3=Piece of My Heart
TTITLE4=Turtle Blues
TTITLE5=Oh, Sweet Mary
TTITLE6=Ball and Chain
TTITLE7=Roadblock
TTITLE8=Flower in the Sun
TTITLE9=Catch Me Daddy (live)
TTITLE10=Magic of Love (live)
EXTD=
EXTT0=
EXTT1=
EXTT2=
EXTT3=
EXTT4=
EXTT5=
EXTT6=
EXTT7=
EXTT8=
EXTT9=
EXTT10=
PLAYORDER=
